<?xml version="1.0" encoding="utf-8"?>
<!-- Generator: Adobe Illustrator 13.0.2, SVG Export Plug-In . SVG Version: 6.00 Build 14948)  -->
<!DOCTYPE svg PUBLIC "-//W3C//DTD SVG 1.1//EN" "http://www.w3.org/Graphics/SVG/1.1/DTD/svg11.dtd">
<svg version="1.1" id="Layer_1" xmlns="http://www.w3.org/2000/svg" xmlns:xlink="http://www.w3.org/1999/xlink" x="0px" y="0px"
	 width="404.826px" height="420.195px" viewBox="0 0 404.826 420.195" enable-background="new 0 0 404.826 420.195"
	 xml:space="preserve">
<g id="Outline">
	<g>
		<path d="M352.111,1c2.015,0,3.937,0.251,5.395,0.945c0.74,0.353,1.469,0.923,2.178,1.635c4.316,4.341,7.822,14.115,7.822,14.115
			c-0.6-1.198-1.17-2.174-1.713-2.949c1.338,2.646,2.164,5.99,2.297,10.199c0.211,6.687,0.582,13.019,1.033,18.854
			c-0.262,13.644-1.307,34.369-2.783,58.646c-2.25,37-10.25,75.25-16.75,86c-3.002,4.133-5.397,8.965-7.334,14.154
			c0.162-0.063,0.324-0.127,0.488-0.194c1.924-5.115,4.297-9.878,7.262-13.96c6.5-10.75,14.5-49,16.75-86s3.5-65.75,2.5-73.75
			l-0.5-4c0,0,1.25-0.333,5.25-0.667c1.404-0.117,2.682-0.479,3.781-0.57c0.162-0.014,0.32-0.021,0.475-0.021
			c1.781,0,3.014,1.01,3.412,5.591c0.666,7.667,2.666,61.666,1.666,72.333c-0.647,6.919-3.543,35.015-8.313,59
			c2.846-0.168,10.149-0.666,11.479-0.666c0.5,0,1.447,0.047,2.312,0.484c1.438,0.728,2.647,2.537,1.188,7.016
			c-0.584,1.793-1.449,4.141-2.469,6.722c-0.023,0.492-0.133,1.021-0.353,1.549c-0.205,0.488-0.477,0.907-0.778,1.257
			c-2.939,7.155-6.64,15.164-8.732,18.141c-3.154,4.479-8.457,14.07-22.969,16.461c-3.006,7.399-4.273,16.638-3.365,36.039
			c1.334,12.333,9,42-17,52c-2.998,0.555-7.517,0.813-13.058,0.813c-1.949,0-4.025-0.032-6.206-0.096
			c-5.355-0.152-11.354-0.493-17.658-0.99c-4.166,0.494-8.592,0.866-12.912,0.953c-12.5,0.253-39.028,1.689-52.664,1.689
			c-0.597,0-1.17-0.003-1.715-0.009c1.664,21.271,6.104,77.438,6.379,81.137c0.099,1.318,0.371,3.361,0.778,5.691l138.774,9.112
			c1.906-0.212,3.822-0.37,5.528-0.37c0.615,0,1.203,0.021,1.753,0.066c2.404,0.2,5.824,0.58,8.431,0.853
			c1.729,0.181,3.104,0.313,3.569,0.313c1.166,0,3.666,0.334,3.666,3.334s-0.666,3.833-4.166,4.333s-87.168,9.001-95,9.667
			c-7.323,0.623-25.276,1.682-33.577,1.682c-0.578,0-1.111-0.005-1.591-0.016c-2.838-0.064-9.096-0.007-16.067-0.487
			c-1.082-0.074-2.183-0.167-3.287-0.27c-0.814,0.998-3.31,2.424-8.187,2.424c-5,0-8.75-0.125-10.25-0.25s-3.75-0.875-3.875-3
			c-0.062-1.065,0-3.418,0.079-5.5c-0.909-0.729-1.682-1.526-2.245-2.417c-2.671-4.218-4.171-7.591-5.128-11.18
			c-13.388-0.977-22.736-1.7-23.956-1.903c-0.32-0.054-0.591-0.15-0.833-0.271c-22.738,1.881-70.564,5.83-73.417,6.021
			c-3.009,0.2-25.008,1.527-47.406,1.527c-4.768,0-9.557-0.062-14.182-0.204c-0.724-0.022-1.446-0.047-2.162-0.073
			c-1.931-0.072-3.731-0.211-5.436-0.395c-0.203,0.839-0.819,1.4-2.439,1.645c-2.5,0.375-10,0.375-11.5,0.375s-5.125,0-5.375-2.25
			c-0.146-1.321-0.207-4.188-0.232-6.335c-5.071-3.736-6.494-7.85-7.018-9.29c-1-2.75-2.75-10.75-3.75-16.75s-5-49-5.75-65.75
			c-0.319-7.135-0.911-16.179-1.388-25.888c-1.898-0.324-3.621-0.63-4.862-0.862c-8-4.5,0.25-7,1.5-7
			c0.313,0,1.463-0.047,3.009-0.118c-0.122-3.133-0.222-6.298-0.288-9.458c-5.343-0.686-17.729-5.463-0.087-6.665
			c-0.022-5.414,0.077-10.733,0.366-15.759c1.25-21.75,19.25-19.75,40.25-22c6.506-0.697,66.75-4.75,91-7.25s29.75-20.75,35-31.75
			c1.797-3.766,3.33-5.978,4.671-7.299c1.159-3.685,2.096-7.233,2.663-10.451c2.258-12.796,6.073-33.523,7.183-50.775
			c-0.246,0.016-0.434,0.025-0.517,0.025c-0.926,0-1.974,0.182-3.027,0.182c-2.327,0-4.683-0.888-5.824-6.582
			c-0.156-0.775-0.291-1.635-0.398-2.601c-1.25-11.25,1.5-57.5,3.25-63s0.75-19.25,25-19.75s63.75-4.25,72.5-5.5s54-6.75,58.75-8
			C341.006,2.695,346.874,1,352.111,1 M317.675,292.712c1.289,0,2.271-0.08,2.831-0.267c0.607-0.202,1.242-0.305,1.896-0.452
			c4.19-0.946,9.18-3.756,12.854-46.798c0.404-9.692,1.523-21.07,4.148-31.843c-0.146,0.017-0.285,0.033-0.431,0.05
			c-2.614,10.758-3.731,22.115-4.135,31.793c-4.25,49.75-10.25,45.75-14.75,47.25c-0.52,0.173-1.399,0.256-2.555,0.267
			C317.582,292.712,317.629,292.712,317.675,292.712 M45.505,246.695c4.245-0.439,9.517-1.136,15.769-1.135
			c4.426,0,9.343,0.349,14.731,1.385c3.164-0.575,9.552-1.481,16.741-1.481c5.309,0,11.055,0.494,16.259,1.981
			c4.616-0.888,19.441-2.405,28.724-2.405c3.79,0,6.656,0.253,7.526,0.905c1.102,0.05,2.794,0.07,4.81,0.07
			c2.732,0,6.058-0.037,9.305-0.086c0.858-8.253,2.812-23.385,4.576-32.053c-8.096,1.934-15.804,1.753-20.691,2.567
			c-6,1-49.5,3.25-79.75,5.75s-33.25,8.5-33.25,17.5c0,1.204,0.032,3.05,0.088,5.339C34.252,245.13,39.203,245.615,45.505,246.695
			 M51.635,285.309c-5.275-1.167-13.604-2.998-20.035-4.359c0.055,1.366,0.11,2.707,0.164,4.002
			C33.811,284.98,41.514,285.119,51.635,285.309 M300.889,291.142l-9.856-1.88l-10.781-2.056c-0.521-0.067-1.037-0.136-1.566-0.205
			l-0.014,0.844c1.064,0.188,1.785,0.311,2.086,0.351C282.668,288.45,291.804,289.94,300.889,291.142 M56.231,394.648
			c1.662,0,3.007-0.203,3.774-0.203c3.5,0,44-2.25,53.75-3s59-5.25,69.25-6c1.81-0.133,3.61-0.188,5.351-0.188
			c6.147,0.001,11.527,0.683,13.776,1.013c0.719,0.104,1.123,0.176,1.123,0.176l-0.025,0.376c1.965-0.072,3.985-0.126,5.775-0.126
			l5.105,0.335c-0.09-0.854-0.18-1.733-0.271-2.668c-0.263-2.66-4.057-45.624-6.145-70.993c-13.422-0.446-81.188-2.698-85.689-2.924
			c-4.514-0.226-74.227-1.878-89.022-2.196c0.864,12.617,2.623,36.001,5.022,60.196c2.164,21.823,10.834,25.688,16.811,26.15
			C55.308,394.634,55.781,394.648,56.231,394.648 M251.676,408.147c3.065,0,7.005-0.262,12.164-0.452
			c6.147-0.229,27.746-2.046,49.824-4.005c-19.644-1.343-49.039-3.364-74.063-5.132c0.766,2.52,1.637,4.732,2.571,6.137
			c1.183,1.771,2.709,2.683,4.938,3.115C248.379,408.058,249.877,408.147,251.676,408.147 M352.111-1
			c-5.458,0-11.41,1.701-11.66,1.774c-3.104,0.815-26.53,3.812-42.032,5.796c-7.357,0.941-13.713,1.755-16.445,2.145
			c-9.414,1.346-48.433,4.989-72.259,5.48c-22.514,0.464-24.963,12.305-26.279,18.667c-0.202,0.977-0.377,1.82-0.585,2.477
			c-1.827,5.74-4.588,52.523-3.332,63.827c0.109,0.979,0.252,1.913,0.425,2.774c1.12,5.585,3.593,8.187,7.785,8.187
			c0.481,0,0.952-0.031,1.388-0.067c-1.184,15.489-4.373,33.482-6.518,45.582l-0.479,2.707c-0.494,2.801-1.321,6.078-2.459,9.746
			c-1.555,1.657-3.099,4.115-4.71,7.49c-0.557,1.167-1.107,2.395-1.69,3.692c-4.961,11.053-11.135,24.809-31.71,26.93
			c-15.588,1.607-45.657,3.826-67.613,5.446c-12.218,0.901-21.046,1.553-23.395,1.805c-2.865,0.308-5.686,0.535-8.414,0.756
			c-17.408,1.407-32.442,2.623-33.62,23.117c-0.245,4.25-0.367,8.854-0.373,14.026c-5.49,0.502-9.052,1.53-9.135,4.311
			c-0.103,3.443,6.153,5.207,9.262,5.869c0.046,1.893,0.106,3.858,0.178,5.88c-0.648,0.025-0.864,0.029-0.936,0.029
			c-1.156,0-5.98,1.144-6.829,4.382c-0.593,2.266,0.87,4.404,4.348,6.361l0.288,0.162l0.325,0.061
			c0.899,0.168,2.042,0.373,3.312,0.595c0.208,4.106,0.431,8.038,0.647,11.854c0.255,4.495,0.495,8.741,0.66,12.425
			c0.729,16.286,4.736,59.753,5.775,65.989c0.971,5.827,2.747,14.091,3.843,17.104l0.028,0.079c0.575,1.586,2.056,5.668,6.882,9.523
			c0.042,2.688,0.12,4.555,0.231,5.56c0.448,4.029,5.652,4.029,7.363,4.029c4.174,0,9.608-0.068,11.797-0.397
			c1.447-0.217,2.528-0.721,3.235-1.503c1.423,0.13,2.831,0.222,4.268,0.274c0.721,0.026,1.447,0.051,2.175,0.073
			c4.373,0.136,9.165,0.205,14.244,0.205c23.873,0,47.309-1.518,47.539-1.532c2.571-0.171,40.98-3.338,72.966-5.982
			c0.266,0.093,0.537,0.162,0.82,0.21c0.746,0.124,3.938,0.448,22.751,1.824c1.049,3.378,2.614,6.631,4.975,10.356
			c0.496,0.783,1.123,1.521,1.9,2.235c-0.078,2.297-0.092,3.885-0.042,4.729c0.158,2.687,2.397,4.601,5.706,4.876
			c1.534,0.128,5.35,0.257,10.416,0.257c4.979,0,7.625-1.359,8.893-2.353c0.885,0.077,1.69,0.142,2.443,0.192
			c5.441,0.375,10.439,0.426,13.746,0.459c0.959,0.01,1.773,0.02,2.414,0.032c0.491,0.012,1.04,0.017,1.635,0.017
			c8.609,0,26.742-1.094,33.747-1.688c8.212-0.698,91.771-9.202,95.114-9.682c4.397-0.628,5.883-2.221,5.883-6.312
			c0-3.24-2.224-5.334-5.666-5.334c-0.447,0-2.566-0.22-3.363-0.303l-1.854-0.196c-2.216-0.235-4.729-0.503-6.615-0.66
			c-0.583-0.049-1.229-0.073-1.919-0.073c-1.541,0-3.316,0.115-5.573,0.363l-137.018-8.998c-0.247-1.569-0.423-2.96-0.496-3.947
			c-0.149-2.018-1.549-19.771-3.03-38.569c-1.166-14.8-2.402-30.484-3.18-40.411c8.199-0.02,20.889-0.528,32.107-0.979
			c7.781-0.312,15.131-0.607,20.148-0.71c3.907-0.078,8.25-0.396,12.911-0.942c6.363,0.499,12.271,0.829,17.562,0.979
			c2.207,0.063,4.314,0.096,6.265,0.096c5.871,0,10.387-0.284,13.422-0.847l0.182-0.034l0.172-0.065
			c24.601-9.461,20.884-35.475,18.887-49.449c-0.238-1.67-0.464-3.249-0.608-4.573c-0.895-19.197,0.452-27.782,2.825-34.112
			c13.312-2.604,19.136-11.183,22.305-15.851c0.3-0.44,0.58-0.854,0.844-1.229c2.335-3.318,6.188-11.841,8.834-18.257
			c0.36-0.462,0.657-0.971,0.888-1.518c0.253-0.611,0.412-1.236,0.479-1.869c1.008-2.562,1.836-4.825,2.399-6.557
			c2.021-6.208-0.502-8.566-2.188-9.419c-0.917-0.464-1.998-0.7-3.214-0.7c-0.941,0-4.2,0.203-8.359,0.467
			c-0.226,0.014-0.445,0.028-0.661,0.042c4.825-25.212,7.544-53.425,7.847-56.656c1.02-10.876-0.974-64.735-1.665-72.691
			c-0.193-2.22-0.646-7.417-5.404-7.418c-0.208,0-0.421,0.01-0.641,0.027c-0.615,0.052-1.219,0.163-1.858,0.28
			c-0.628,0.116-1.275,0.236-1.923,0.29c-1.771,0.148-3.035,0.297-3.909,0.423c-0.188-1.877-0.526-3.627-1.014-5.236l0.472-0.202
			c-0.148-0.416-3.709-10.246-8.287-14.851c-0.928-0.932-1.821-1.596-2.734-2.03C356.778-0.616,354.674-1,352.111-1L352.111-1z
			 M32.3,243.108c-0.03-1.46-0.045-2.604-0.045-3.413c0-6.64,0-12.91,31.415-15.507c14.623-1.208,32.059-2.34,47.443-3.338
			c16.357-1.062,29.276-1.9,32.471-2.434c1.707-0.284,3.801-0.442,6.226-0.627c3.363-0.256,7.393-0.562,11.607-1.337
			c-1.545,8.512-3.06,20.343-3.846,27.501c-2.986,0.04-5.505,0.062-7.505,0.062c-1.821,0-3.243-0.018-4.24-0.051
			c-1.081-0.516-3.131-0.926-8.096-0.926c-8.789,0-23.205,1.393-28.631,2.354c-4.682-1.281-10.18-1.932-16.352-1.932
			c-7.559,0-13.984,0.966-16.73,1.448c-4.849-0.91-9.675-1.352-14.742-1.352c-5.4-0.001-10.145,0.516-13.958,0.93
			c-0.6,0.065-1.182,0.128-1.746,0.188C40.604,243.835,36.151,243.309,32.3,243.108L32.3,243.108z M56.231,392.648
			c-0.433,0-0.857-0.017-1.262-0.047c-8.397-0.647-13.436-8.843-14.974-24.354c-2.437-24.569-4.129-47.404-4.866-57.951
			c18.879,0.418,82.507,1.934,86.776,2.146c2.886,0.146,31.908,1.136,83.944,2.866c2.159,26.104,5.762,66.836,6,69.25
			c0.01,0.107,0.021,0.215,0.032,0.32l-2.745-0.181l-0.064-0.004h-0.065c-1.108,0-2.362,0.02-3.798,0.061l-1.609-0.28
			c0,0-0.423-0.073-1.175-0.185c-2.113-0.311-7.714-1.032-14.067-1.033c-1.903,0-3.752,0.065-5.497,0.192
			c-5.561,0.407-22.298,1.891-38.483,3.325c-13.531,1.2-26.311,2.333-30.774,2.676c-9.458,0.729-50.031,2.994-53.597,2.994
			c-0.392,0-0.841,0.037-1.361,0.079C57.974,392.58,57.139,392.648,56.231,392.648L56.231,392.648z M251.676,406.147
			c-1.803,0-3.133-0.097-4.185-0.3c-1.774-0.346-2.801-0.979-3.655-2.263c-0.34-0.51-0.812-1.375-1.372-2.819
			c14.801,1.043,30.78,2.15,45.344,3.154c-10.899,0.911-20.289,1.638-24.041,1.775c-1.886,0.07-3.606,0.149-5.185,0.222
			C255.897,406.041,253.579,406.147,251.676,406.147L251.676,406.147z"/>
	</g>
</g>
<g id="structure">
	<g>
		
			<linearGradient id="SVGID_1_" gradientUnits="userSpaceOnUse" x1="25.6021" y1="120.1755" x2="203.1182" y2="120.1755" gradientTransform="matrix(1 0 0 -1 0.1377 419.0288)">
			<stop  offset="0.1484" style="stop-color:#624317"/>
			<stop  offset="0.4615" style="stop-color:#2D1700"/>
		</linearGradient>
		<path fill="url(#SVGID_1_)" stroke="#000000" d="M147.006,391.199c-6,0.5-50.75,3-78.75,4.25
			c-6.061,0.271-10.371-0.081-13.44-0.85c-5.977-0.461-14.646-4.327-16.81-26.15c-3-30.25-5-59.25-5.5-67.5s-2.25-52.25-2.25-61.25
			s3-15,33.25-17.5s73.75-4.75,79.75-5.75s16.25-0.5,26.25-4.25c3.856-1.446,7.415-8.545,10.332-16.72
			c-5.584,5.762-12.8,10.716-21.832,11.72c-22.5,2.5-109.5,9.25-114,10.25s-18,2-18.25,19s2.5,70.5,3.25,80.75s4,48,5,53
			s4.534,30.646,19.534,31.646c0.842,0.056,1.629,0.115,2.378,0.179c26.348,0.819,57.938-1.08,61.588-1.323
			c3.75-0.25,85.25-7,85.25-7l0.5-7.25c0,0-0.404-0.07-1.124-0.176C187.376,387.602,151.746,390.805,147.006,391.199z"/>
		
			<linearGradient id="SVGID_2_" gradientUnits="userSpaceOnUse" x1="54.6782" y1="28.6277" x2="201.9941" y2="28.6277" gradientTransform="matrix(1 0 0 -1 0.1377 419.0288)">
			<stop  offset="0.2582" style="stop-color:#E6B564"/>
			<stop  offset="0.4615" style="stop-color:#624317"/>
		</linearGradient>
		<path fill="url(#SVGID_2_)" stroke="#000000" d="M68.256,395.449c28-1.25,72.75-3.75,78.75-4.25
			c4.74-0.395,40.37-3.598,55.126-4.926c-2.885-0.424-10.923-1.425-19.126-0.824c-10.25,0.75-59.5,5.25-69.25,6s-50.25,3-53.75,3
			c-0.975,0-2.883,0.328-5.19,0.15C57.885,395.368,62.195,395.72,68.256,395.449z"/>
		
			<linearGradient id="SVGID_3_" gradientUnits="userSpaceOnUse" x1="98.8301" y1="197.343" x2="100.3302" y2="81.3431" gradientTransform="matrix(1 0 0 -1 0.1377 419.0288)">
			<stop  offset="0" style="stop-color:#B78F4C"/>
			<stop  offset="0.0714" style="stop-color:#FFFFFF"/>
			<stop  offset="0.1703" style="stop-color:#E6B564"/>
			<stop  offset="0.6648" style="stop-color:#BB8E51"/>
			<stop  offset="0.9011" style="stop-color:#B4874E"/>
			<stop  offset="1" style="stop-color:#915E23"/>
		</linearGradient>
		<path fill="url(#SVGID_3_)" stroke="#000000" d="M34.006,370.199c-1-5-4.25-42.75-5-53s-3.5-63.75-3.25-80.75s13.75-18,18.25-19
			s91.5-7.75,114-10.25c9.032-1.003,16.248-5.958,21.832-11.72c4.648-13.023,7.668-28.78,7.668-28.78c-2.5,1-5.5-1.25-10.75,9.75
			s-10.75,29.25-35,31.75s-84.494,6.553-91,7.25c-21,2.25-39,0.25-40.25,22s1,49,1.75,65.75s4.75,59.75,5.75,65.75
			s2.75,14,3.75,16.75s5.25,15.25,32,16.25c0.715,0.026,1.438,0.051,2.162,0.073c-0.749-0.062-1.536-0.123-2.378-0.179
			C38.54,400.844,35.006,375.199,34.006,370.199z"/>
	</g>
	<g>
		<path fill="#624317" stroke="#000000" d="M273.756,393.949c8,0.25,97.75,5.25,97.75,5.25l4.831-0.69l0.169-0.81l-167.5-11
			c-4.75,0-11.125,0.375-13.75,0.5c-0.985,0.047-2.017,0.077-2.938,0.183c1.417,0.437,3.049,0.727,4.938,0.817
			C212.756,388.949,265.756,393.699,273.756,393.949z"/>
		
			<linearGradient id="SVGID_4_" gradientUnits="userSpaceOnUse" x1="189.189" y1="22.7385" x2="376.1992" y2="22.7385" gradientTransform="matrix(1 0 0 -1 0.1377 419.0288)">
			<stop  offset="0.1484" style="stop-color:#624317"/>
			<stop  offset="0.4615" style="stop-color:#3B2400"/>
		</linearGradient>
		<path fill="url(#SVGID_4_)" stroke="#000000" d="M371.506,399.199c0,0-89.75-5-97.75-5.25s-61-5-76.5-5.75
			c-1.889-0.092-3.521-0.382-4.938-0.817c-1.648,0.188-2.937,0.614-2.937,1.817c0,1.5-0.625,5.25,2.375,5.75
			c4.957,0.826,144,10.25,144,10.25l39.5-1.5l1.081-5.19L371.506,399.199z"/>
	</g>
	
		<linearGradient id="SVGID_5_" gradientUnits="userSpaceOnUse" x1="124.9854" y1="176.7449" x2="137.9855" y2="153.7444" gradientTransform="matrix(1 0 0 -1 0.1377 419.0288)">
		<stop  offset="0.022" style="stop-color:#AA7B36"/>
		<stop  offset="0.3077" style="stop-color:#624317"/>
		<stop  offset="0.7692" style="stop-color:#2D1700"/>
	</linearGradient>
	<path fill="url(#SVGID_5_)" stroke="#000000" d="M23.256,268.699c0,0-14.5,0.75-15.75,0.75s-9.5,2.5-1.5,7
		c4,0.75,13,2.25,16.75,2.75s34,7.25,34,7.25l221.75,11.75l0.5-31.5L23.256,268.699z"/>
	
		<linearGradient id="SVGID_6_" gradientUnits="userSpaceOnUse" x1="118.0913" y1="109.907" x2="118.7583" y2="131.24" gradientTransform="matrix(1 0 0 -1 0.1377 419.0288)">
		<stop  offset="0" style="stop-color:#D6A85B"/>
		<stop  offset="0.0934" style="stop-color:#EDD8A0"/>
		<stop  offset="0.1868" style="stop-color:#E6B564"/>
		<stop  offset="0.8242" style="stop-color:#624317"/>
	</linearGradient>
	<path fill="url(#SVGID_6_)" stroke="#000000" d="M208.506,287.949c0,0-77.75-1-87-1.25s-88.25-1.75-90.25-1.75s-4-0.25-4.25,2.75
		s0.25,15.5,0.5,16.75s1,3.75,2.75,3.75s86.75,2,91.75,2.25s88,3,88,3L208.506,287.949z"/>
	
		<linearGradient id="SVGID_7_" gradientUnits="userSpaceOnUse" x1="220.9639" y1="121.9124" x2="317.8682" y2="121.9124" gradientTransform="matrix(1 0 0 -1 0.1377 419.0288)">
		<stop  offset="0.1484" style="stop-color:#624317"/>
		<stop  offset="0.4615" style="stop-color:#2D1700"/>
	</linearGradient>
	<path fill="url(#SVGID_7_)" stroke="#000000" d="M222.506,294.872c0,0,46.25,0.972,57.75-1.617c11.5-2.588,37.75,2.266,37.75,2.266
		s-17.5,4.205-33.5,4.527c-16,0.323-55,2.589-60.5,1.295C218.506,300.048,222.506,294.872,222.506,294.872z"/>
	<g>
		
			<linearGradient id="SVGID_8_" gradientUnits="userSpaceOnUse" x1="28.6182" y1="21.2048" x2="48.2754" y2="21.2048" gradientTransform="matrix(1 0 0 -1 0.1377 419.0288)">
			<stop  offset="0.022" style="stop-color:#58595B"/>
			<stop  offset="0.2374" style="stop-color:#555658"/>
			<stop  offset="0.3806" style="stop-color:#4D4E50"/>
			<stop  offset="0.5028" style="stop-color:#3F3E40"/>
			<stop  offset="0.6127" style="stop-color:#0D0C0D"/>
			<stop  offset="0.6264" style="stop-color:#000000"/>
			<stop  offset="1" style="stop-color:#000000"/>
		</linearGradient>
		<path fill="url(#SVGID_8_)" stroke="#000000" d="M48.381,399.949c-10.5-3.5-9.75-7.25-9.75-7.25l-2.236-0.224l0.236,7.724
			l-5.75-0.25l0.271-6.224l-0.771-1.651l-1.625,0.25c0,0,0,6.75,0.25,9s3.875,2.25,5.375,2.25s9,0,11.5-0.375
			S48.506,401.699,48.381,399.949z"/>
		<polygon stroke="#000000" points="36.631,400.199 36.395,392.476 36.131,392.449 36.006,393.699 31.256,393.949 31.151,393.726 
			30.881,399.949 		"/>
	</g>
	<g>
		
			<linearGradient id="SVGID_9_" gradientUnits="userSpaceOnUse" x1="341.0527" y1="131.2136" x2="367.0529" y2="394.2141" gradientTransform="matrix(1 0 0 -1 0.1377 419.0288)">
			<stop  offset="0" style="stop-color:#B78F4C"/>
			<stop  offset="0.0714" style="stop-color:#FFFFFF"/>
			<stop  offset="0.1868" style="stop-color:#E6B564"/>
			<stop  offset="0.6648" style="stop-color:#BB8E51"/>
			<stop  offset="0.9011" style="stop-color:#B4874E"/>
			<stop  offset="1" style="stop-color:#915E23"/>
		</linearGradient>
		<path fill="url(#SVGID_9_)" stroke="#000000" d="M332.673,292.032c6.166-2,19.166-10.666,15.833-28.833s-1.998-48.334,1.668-55.5
			s18.499-39.833,21.666-57.167s7.166-52.334,6.833-69.167s-0.833-46.666-1.166-50.833c-0.148-1.865-0.462-4.862,0.28-7.069
			c-1.1,0.092-2.378,0.453-3.781,0.57c-4,0.333-5.25,0.667-5.25,0.667l0.5,4c1,8-0.25,36.75-2.5,73.75s-10.25,75.25-16.75,86
			c-10.833,14.917-14,38.75-14.75,56.75c-3.677,43.042-8.664,45.853-12.854,46.798C326.257,292.678,330.093,292.869,332.673,292.032
			z"/>
		<path fill="none" stroke="#000000" d="M181.172,278.532c-2.022-0.337-8.431,0.007-13.01,0.217c0.58,0.131,1.138,0.2,1.594,0.2
			c1.75,0,3.583,1.083,15.25,2.75s71.667,13,94.667,15.667c12.643,1.466,25.178,2.427,35.403,2.719
			c-31.326-4.798-112.354-17.643-114.404-18.053C198.172,281.532,184.172,279.032,181.172,278.532z"/>
		<g>
			<path fill="none" stroke="#000000" d="M183.961,271.5c-4.199-0.276-10.213-0.729-11.455-0.551c-1.75,0.25-3.75,1.25-5.75,1.5
				s-2.5,2-2.25,3.75c0.185,1.294,2.01,2.177,3.656,2.55c4.579-0.21,10.988-0.554,13.01-0.217c0.485,0.081,1.259,0.214,2.223,0.383
				c-0.338-0.333-0.689-0.683-1.056-1.049C179.262,274.789,181.149,272.732,183.961,271.5z"/>
			
				<linearGradient id="SVGID_10_" gradientUnits="userSpaceOnUse" x1="180.6196" y1="257.2185" x2="383.4756" y2="257.2185" gradientTransform="matrix(1 0 0 -1 0.1377 419.0288)">
				<stop  offset="0.1484" style="stop-color:#624317"/>
				<stop  offset="0.4615" style="stop-color:#2D1700"/>
			</linearGradient>
			<path fill="url(#SVGID_10_)" stroke="#000000" d="M381.673,29.033c-0.433-4.978-1.85-5.739-3.886-5.57
				c-0.742,2.208-0.43,5.205-0.28,7.069c0.333,4.167,0.833,34,1.166,50.833s-3.666,51.833-6.833,69.167s-18,50-21.666,57.167
				s-5.001,37.333-1.668,55.5s-9.667,26.833-15.833,28.833c-2.58,0.837-6.416,0.646-10.271-0.035
				c-0.653,0.147-1.288,0.25-1.896,0.452c-4.5,1.5-36-3.75-39.75-4.25s-71.75-13.5-75.25-14s-15.5-2.5-17.75-2.5
				c-0.653,0-2.076-0.085-3.795-0.199c-2.812,1.232-4.699,3.289-1.622,6.366c0.367,0.366,0.718,0.716,1.056,1.049
				c5.003,0.873,15.181,2.698,17.277,3.117c2.05,0.41,83.078,13.255,114.404,18.053c8.379,0.239,15.21,0.031,19.263-0.719
				c26-10,18.334-39.667,17-52c-1.667-35.666,4-37,14.334-55.667s16.666-79.667,17.666-90.333S382.339,36.699,381.673,29.033z"/>
		</g>
	</g>
	
		<linearGradient id="SVGID_11_" gradientUnits="userSpaceOnUse" x1="18.6182" y1="142.3298" x2="165.0054" y2="142.3298" gradientTransform="matrix(1 0 0 -1 0.1377 419.0288)">
		<stop  offset="0" style="stop-color:#624317"/>
		<stop  offset="0.7692" style="stop-color:#2D1700"/>
	</linearGradient>
	<path fill="url(#SVGID_11_)" stroke="#000000" d="M18.756,271.449c0,1.25,1,4.625,3.375,4.625s65.875,5.875,74.375,5.875
		s56.773-1.502,68.637-4.626c-0.637-2.661-0.637-2.661-5.637-2.661s-47.5,3.037-63.25,3.037s-70.25-4.75-72.5-4.75
		S18.756,271.449,18.756,271.449z"/>
	<g>
		<path fill="#0C6081" stroke="#000000" d="M364.413,12.485c-4.729-0.605-9.237-0.97-9.407-0.12c-0.333,1.667,5,11,4.667,18.333
			s-4.667,56-9.667,91.667s-13,61.333-18,70.333s-10,48.667-11,57s2,33.001-17,25.667c-9.61-3.71-12.481,4.691-12.976,13.899
			l10.763,2.052c8.268,1.065,16.203,1.829,18.297,1.132c4.5-1.5,10.5,2.5,14.75-47.25c0.75-18,3.916-41.833,14.75-56.75
			c6.5-10.75,14.5-49,16.75-86c1.478-24.278,2.521-45.004,2.783-58.646c-0.451-5.835-0.822-12.167-1.033-18.854
			C367.915,19.437,366.558,15.398,364.413,12.485z"/>
		
			<linearGradient id="SVGID_12_" gradientUnits="userSpaceOnUse" x1="211.8926" y1="290.1726" x2="332.5579" y2="269.5062" gradientTransform="matrix(1 0 0 -1 0.1377 419.0288)">
			<stop  offset="0" style="stop-color:#A1CDD3"/>
			<stop  offset="0.456" style="stop-color:#A1CDD3"/>
			<stop  offset="0.8681" style="stop-color:#279DD0"/>
			<stop  offset="0.9945" style="stop-color:#0C6081"/>
		</linearGradient>
		<path fill="url(#SVGID_12_)" stroke="#000000" d="M304.006,275.366c19,7.334,16-17.334,17-25.667s6-48,11-57s13-34.667,18-70.333
			s9.334-84.333,9.667-91.667s-5-16.667-4.667-18.333c0.17-0.851,4.678-0.485,9.407,0.12c-10.11-13.731-37.786-2.361-42.323-1.536
			c-5.5,1-115.25,11.25-124.75,12.25s-7.5,51-6,69.25s-4.25,49.25-7.25,66.25s-16.25,43.25-18.75,49.75s-6.416,39.25-6.416,42.917
			l1.916,13.083l130.192,24.816C291.524,280.058,294.396,271.656,304.006,275.366z"/>
	</g>
	<g>
		
			<linearGradient id="SVGID_13_" gradientUnits="userSpaceOnUse" x1="0.8604" y1="161.8025" x2="181.2998" y2="161.8025" gradientTransform="matrix(1 0 0 -1 0.1377 419.0288)">
			<stop  offset="0.5549" style="stop-color:#A1CDD3"/>
			<stop  offset="0.8846" style="stop-color:#2596C6"/>
			<stop  offset="0.9945" style="stop-color:#0C6081"/>
		</linearGradient>
		<path fill="url(#SVGID_13_)" stroke="#000000" d="M46.006,258.949c4.75,0.25,66.75-0.25,72.25,0s28.5,1,33.75,0.5s6.5-2.25,9.75,0
			s14.25,2.75,17.75,1.5c1.469-0.523,1.703-0.694,1.852-0.662c0.328-1.74-0.397-3.563-1.519-5.239
			c-0.113-0.032-0.228-0.064-0.333-0.099c-4.75-1.5-10.25-2-14.5-0.75s-8.75,1-15.75,0.25s-29.75-0.75-33.25-0.75
			s-49.75,0.75-55.25,0.75s-24.5,1-40.25-0.25c-4.31-0.342-6.966-0.778-8.744-1.364c-0.526,0.18-1.043,0.308-1.506,0.364
			c-18.75,1.25-4,6.5,0.75,6.75c0.749,0.039,1.318,0.134,1.772,0.266c1.185-0.267,2.493-0.459,3.978-0.516
			C23.256,259.449,41.256,258.699,46.006,258.949z"/>
		
			<linearGradient id="SVGID_14_" gradientUnits="userSpaceOnUse" x1="11.6245" y1="159.8289" x2="314.9629" y2="159.8289" gradientTransform="matrix(1 0 0 -1 0.1377 419.0288)">
			<stop  offset="0.4725" style="stop-color:#A1CDD3"/>
			<stop  offset="0.6923" style="stop-color:#2596C6"/>
			<stop  offset="0.9945" style="stop-color:#0C6081"/>
		</linearGradient>
		<path fill="url(#SVGID_14_)" stroke="#000000" d="M179.839,255.048c4.993,1.435,17.456,2.151,19.167,2.151
			c1.75,0,42.25,3.75,46.75,5s36.75,6.25,41,6.75s12,2.5,17,3.25c3.719,0.558,6.611,1.528,11.345,1.064
			c-0.605-0.377-1.09-0.806-1.345-1.314c-1-2-12.25-3.75-16.5-5.25s-24.25-5.75-32-7.75s-71.25-10.5-77-11s-14.25-2.25-15.75-2.25
			s-21.75,0.5-27.25,0.25c-3-2.25-29.75,0.25-36.25,1.5c-12.25-3.5-27.5-1.5-33-0.5c-13-2.5-23.25-1-30.5-0.25
			c-26.25-4.5-29.25,1.25-29.75,3c-0.384,1.345-2.245,2.54-3.994,3.136c1.778,0.586,4.435,1.022,8.744,1.364
			c15.75,1.25,34.75,0.25,40.25,0.25s51.75-0.75,55.25-0.75s26.25,0,33.25,0.75s11.5,1,15.75-0.25s9.75-0.75,14.5,0.75
			C179.611,254.982,179.726,255.015,179.839,255.048"/>
		
			<linearGradient id="SVGID_15_" gradientUnits="userSpaceOnUse" x1="12.6401" y1="143.988" x2="318.7793" y2="143.988" gradientTransform="matrix(1 0 0 -1 0.1377 419.0288)">
			<stop  offset="0.456" style="stop-color:#69A0C8"/>
			<stop  offset="0.6209" style="stop-color:#228BB8"/>
			<stop  offset="0.6291" style="stop-color:#2289B5"/>
			<stop  offset="0.7133" style="stop-color:#167096"/>
			<stop  offset="0.7943" style="stop-color:#0A5D7E"/>
			<stop  offset="0.8702" style="stop-color:#00506D"/>
			<stop  offset="0.939" style="stop-color:#004762"/>
			<stop  offset="0.9945" style="stop-color:#00435E"/>
		</linearGradient>
		<path fill="url(#SVGID_15_)" stroke="#000000" d="M181.358,260.287c-0.149-0.032-0.383,0.138-1.852,0.662
			c-3.5,1.25-14.5,0.75-17.75-1.5s-4.5-0.5-9.75,0s-28.25-0.25-33.75-0.5s-67.5,0.25-72.25,0s-22.75,0.5-29.25,0.75
			c-1.485,0.057-2.793,0.249-3.978,0.516c2.429,0.71,1.127,2.663,0.978,4.984c-0.25,3.875,1.284,4,6.784,5.44
			c5.949,1.558,47.966,7.06,66.216,7.06s64.25-1.5,76.75-3.5s154.5,18.75,154.5,17.5c0-1.229-0.961-7.53,0.911-9.877
			c-8.654-3.634-23.427-4.962-26.161-5.873c-3-1-14.25-2.25-17.5-2.25s-23-3-26.5-3s-44.75-6.5-51.25-7.5s-8-1.25-13-2
			C181.604,260.764,181.563,260.332,181.358,260.287"/>
		<path fill="#0C6081" stroke="#000000" d="M321.006,275.949c-1.304-0.932-4.133-1.586-5.905-2.686
			c-4.732,0.464-7.626-0.508-11.345-1.064c-5-0.75-12.75-2.75-17-3.25s-36.5-5.5-41-6.75s-45-5-46.75-5
			c-1.711,0-14.174-0.718-19.167-2.151c1.122,1.676,1.847,3.499,1.519,5.239c0.206,0.045,0.247,0.478,3.148,0.912c5,0.75,6.5,1,13,2
			s47.75,7.5,51.25,7.5s23.25,3,26.5,3s14.5,1.25,17.5,2.25c2.734,0.911,17.507,2.239,26.161,5.873
			c0.031-0.039,0.056-0.086,0.089-0.123C327.006,280.449,322.756,277.199,321.006,275.949z"/>
	</g>
	<g>
		<path fill="none" stroke="#0086B1" d="M254.256,102.467c-0.75,8.75-6.25,48.232-8.25,59.232s-4,22.25-12.5,33
			c-7.847,9.924-12.25,43.248-12.5,57.498"/>
		<path fill="none" stroke="#0086B1" d="M285.256,99.744c-0.75,8.75-6.25,50.956-8.25,61.956s-4,22.25-12.5,33
			c-7.848,9.924-12.25,29.667-12.5,61.948"/>
		<path fill="none" stroke="#0086B1" d="M318.506,96.885c-0.75,8.75-6.25,53.814-8.25,64.814s-4,22.25-12.5,33
			c-7.848,9.924-12.5,34.667-12.5,68.937"/>
		<path fill="none" stroke="#0086B1" d="M224.006,105.135c-0.75,8.75-6.25,45.564-8.25,56.564s-4,22.25-12.5,33
			c-7.847,9.924-12.25,39.25-12.5,53.5"/>
	</g>
	<g>
		
			<linearGradient id="SVGID_16_" gradientUnits="userSpaceOnUse" x1="222.6953" y1="130.1628" x2="398.8672" y2="130.1628" gradientTransform="matrix(1 0 0 -1 0.1377 419.0288)">
			<stop  offset="0.1484" style="stop-color:#624317"/>
			<stop  offset="0.4615" style="stop-color:#2D1700"/>
		</linearGradient>
		<path fill="url(#SVGID_16_)" stroke="#000000" d="M395.339,398.532c-0.466,0-1.839-0.134-3.569-0.312
			c-20.747,2.829-90.698,11.229-126.764,11.812c-9.123,0.147-14.706-0.811-17.897-2.218c-2.229-0.434-3.756-1.344-4.937-3.115
			c-3-4.5-5.333-17.334-5.667-21.834s-6.833-86.666-7-89.166s-1.5-43-1-56.833s13-14.167,16.833-14.834s37.333-3.833,50.5-4.666
			s44-3.667,58.667-6s20-12,23.167-16.5s10-20.5,12.333-27.667c1.458-4.478,0.248-6.288-1.189-7.016
			c-0.975,0.729-2.032,2.305-3.144,5.183c-4.5,11.667-13.5,33.167-23.5,36s-76.5,8.667-89.667,9.667s-35.667,3.166-40.5,6.333
			s-9.333,4.832-9.167,19.166s0.166,53.834,0.333,57.167s7.283,82.482,8.167,88.833c1.833,13.167,4.494,25.159,7.667,28.333
			c2.891,2.89,6.041,4.892,9.598,6.18c6.973,0.48,13.23,0.424,16.068,0.487c7.333,0.166,27.334-1,35.167-1.666s91.5-9.167,95-9.667
			s4.167-1.333,4.167-4.333S396.506,398.532,395.339,398.532z"/>
		
			<linearGradient id="SVGID_17_" gradientUnits="userSpaceOnUse" x1="246.9707" y1="15.3552" x2="391.6328" y2="15.3552" gradientTransform="matrix(1 0 0 -1 0.1377 419.0288)">
			<stop  offset="0.2582" style="stop-color:#E6B564"/>
			<stop  offset="0.4615" style="stop-color:#624317"/>
		</linearGradient>
		<path fill="url(#SVGID_17_)" stroke="#000000" d="M265.006,410.032c36.064-0.585,106.017-8.983,126.765-11.812
			c-2.605-0.272-6.026-0.652-8.432-0.854c-4-0.333-10,0.666-14,1.166s-92,8.667-105.5,9.167c-8.188,0.303-13.298,0.783-16.73,0.115
			C250.3,409.222,255.883,410.18,265.006,410.032z"/>
		
			<linearGradient id="SVGID_18_" gradientUnits="userSpaceOnUse" x1="296.9111" y1="202.6853" x2="304.411" y2="40.1856" gradientTransform="matrix(1 0 0 -1 0.1377 419.0288)">
			<stop  offset="0" style="stop-color:#B78F4C"/>
			<stop  offset="0.0714" style="stop-color:#FFFFFF"/>
			<stop  offset="0.1703" style="stop-color:#E6B564"/>
			<stop  offset="0.6648" style="stop-color:#BB8E51"/>
			<stop  offset="0.9011" style="stop-color:#B4874E"/>
			<stop  offset="1" style="stop-color:#915E23"/>
		</linearGradient>
		<path fill="url(#SVGID_18_)" stroke="#000000" d="M231.339,382.532c-0.884-6.351-8-85.5-8.167-88.833s-0.167-42.833-0.333-57.167
			s4.333-15.999,9.167-19.166s27.333-5.333,40.5-6.333s79.667-6.834,89.667-9.667s19-24.333,23.5-36
			c1.11-2.878,2.169-4.454,3.144-5.183c-0.863-0.438-1.811-0.484-2.311-0.484c-1.333,0-8.667,0.5-11.5,0.667s-4,2-5,4
			c0,0-6.834,15.666-13.5,26.833s-20,13.333-25,14.167s-31.334,2.5-36.167,3s-20,1.334-56.833,4.5s-32.5,17.5-33.167,23.167
			s1,54.667,1,59.167s7.139,85.483,7.5,89.167c1,10.166,1.655,15.227,7,23.666c3.883,6.131,16.721,8.25,27.766,9.013
			c-3.558-1.288-6.709-3.29-9.599-6.18C235.833,407.691,233.172,395.699,231.339,382.532z"/>
	</g>
	<g>
		
			<linearGradient id="SVGID_19_" gradientUnits="userSpaceOnUse" x1="222.2324" y1="7.9314" x2="243.8989" y2="7.5984" gradientTransform="matrix(1 0 0 -1 0.1377 419.0288)">
			<stop  offset="0.022" style="stop-color:#000000"/>
			<stop  offset="0.5497" style="stop-color:#000000"/>
			<stop  offset="0.6264" style="stop-color:#000000"/>
			<stop  offset="1" style="stop-color:#000000"/>
		</linearGradient>
		<polygon fill="url(#SVGID_19_)" stroke="#000000" points="232.631,415.949 232.19,408.674 232.131,408.949 226.381,408.449 
			225.381,406.449 225.324,406.452 225.506,415.074 		"/>
		
			<linearGradient id="SVGID_20_" gradientUnits="userSpaceOnUse" x1="222.208" y1="6.323" x2="243.8745" y2="5.99" gradientTransform="matrix(1 0 0 -1 0.1377 419.0288)">
			<stop  offset="0.022" style="stop-color:#58595B"/>
			<stop  offset="0.2374" style="stop-color:#555658"/>
			<stop  offset="0.3806" style="stop-color:#4D4E50"/>
			<stop  offset="0.5028" style="stop-color:#3F3E40"/>
			<stop  offset="0.6127" style="stop-color:#0D0C0D"/>
			<stop  offset="0.6264" style="stop-color:#000000"/>
			<stop  offset="1" style="stop-color:#000000"/>
		</linearGradient>
		<path fill="url(#SVGID_20_)" stroke="#000000" d="M236.131,410.199c-0.375-0.75-0.75-3-0.75-3h-2.875l-0.315,1.475l0.44,7.275
			l-7.125-0.875l-0.182-8.622l-2.068,0.122c0,0-0.375,7.25-0.25,9.375s2.375,2.875,3.875,3s5.25,0.25,10.25,0.25s7.5-1.5,8.25-2.5
			C244.381,416.199,236.506,410.949,236.131,410.199z"/>
	</g>
	<g>
		
			<linearGradient id="SVGID_21_" gradientUnits="userSpaceOnUse" x1="181.0527" y1="367.7517" x2="359.5449" y2="367.7517" gradientTransform="matrix(1 0 0 -1 0.1377 419.0288)">
			<stop  offset="0" style="stop-color:#A1CDD3"/>
			<stop  offset="0.0549" style="stop-color:#A1CDD3"/>
			<stop  offset="0.1484" style="stop-color:#96C6D1"/>
			<stop  offset="0.9011" style="stop-color:#279DD0"/>
			<stop  offset="0.9945" style="stop-color:#0C6081"/>
		</linearGradient>
		<path fill="url(#SVGID_21_)" stroke="#000000" d="M270.756,93.949c8.5-0.25,42-4.5,53.5-4.75s18.25-1.75,19-15.5
			s5.25-49.25,6-54.75c0.624-4.573,3.671-16.392,10.427-15.365c-0.708-0.712-1.437-1.282-2.177-1.635c-5.25-2.5-16.5,0.75-16.5,0.75
			c-4.75,1.25-50,6.75-58.75,8s-48.25,5-72.5,5.5s-23.25,14.25-25,19.75s-4.5,51.75-3.25,63c0.107,0.965,0.242,1.824,0.397,2.601
			c15.481-1.297,46.924-3.997,53.353-4.601C243.256,96.199,262.256,94.199,270.756,93.949z"/>
		
			<linearGradient id="SVGID_22_" gradientUnits="userSpaceOnUse" x1="181.7651" y1="363.2029" x2="367.3682" y2="363.2029" gradientTransform="matrix(1 0 0 -1 0.1377 419.0288)">
			<stop  offset="0.2143" style="stop-color:#279DD0"/>
			<stop  offset="0.9945" style="stop-color:#0C6081"/>
		</linearGradient>
		<path fill="url(#SVGID_22_)" stroke="#000000" d="M359.683,3.584c-6.756-1.026-9.803,10.792-10.427,15.365
			c-0.75,5.5-5.25,41-6,54.75s-7.5,15.25-19,15.5s-45,4.5-53.5,4.75s-27.5,2.25-35.5,3c-6.428,0.604-37.871,3.303-53.353,4.601
			c1.658,8.273,5.881,6.399,8.853,6.399c3.25,0,134.75-12,149.5-12.75s14.25-8.25,14.75-28.5c0,0-0.25-74.5,12.5-49
			C367.506,17.699,363.999,7.927,359.683,3.584z"/>
	</g>
	
		<radialGradient id="SVGID_23_" cx="228.2021" cy="140.6628" r="4.8771" gradientTransform="matrix(1 0 0 -1 0.1377 419.0288)" gradientUnits="userSpaceOnUse">
		<stop  offset="0" style="stop-color:#F4E7B0"/>
		<stop  offset="0.2253" style="stop-color:#A88035"/>
		<stop  offset="0.9615" style="stop-color:#886728"/>
	</radialGradient>
	<ellipse fill="url(#SVGID_23_)" stroke="#000000" cx="227.672" cy="280.032" rx="2" ry="3.166"/>
	
		<radialGradient id="SVGID_24_" cx="227.5342" cy="119.3308" r="3.35" gradientTransform="matrix(1 0 0 -1 0.1377 419.0288)" gradientUnits="userSpaceOnUse">
		<stop  offset="0" style="stop-color:#F4E7B0"/>
		<stop  offset="0.2253" style="stop-color:#A88035"/>
		<stop  offset="0.9615" style="stop-color:#886728"/>
	</radialGradient>
	<ellipse fill="url(#SVGID_24_)" stroke="#000000" cx="227.672" cy="301.033" rx="2" ry="3.166"/>
	
		<radialGradient id="SVGID_25_" cx="385.8682" cy="246.3308" r="3.9002" gradientTransform="matrix(1 0 0 -1 0.1377 419.0288)" gradientUnits="userSpaceOnUse">
		<stop  offset="0" style="stop-color:#F4E7B0"/>
		<stop  offset="0.2253" style="stop-color:#A88035"/>
		<stop  offset="0.9615" style="stop-color:#886728"/>
	</radialGradient>
	<path fill="url(#SVGID_25_)" stroke="#000000" d="M387.185,175.47c-0.673,1.612-2.046,2.576-3.063,2.151
		c-1.021-0.425-1.3-2.079-0.627-3.691c0.673-1.614,2.045-2.578,3.063-2.153C387.577,172.202,387.857,173.855,387.185,175.47z"/>
</g>
</svg>
