<?xml version="1.0" encoding="UTF-8" standalone="no"?>
<!-- Created with Inkscape (http://www.inkscape.org/) -->

<svg
   xmlns:dc="http://purl.org/dc/elements/1.1/"
   xmlns:cc="http://creativecommons.org/ns#"
   xmlns:rdf="http://www.w3.org/1999/02/22-rdf-syntax-ns#"
   xmlns:svg="http://www.w3.org/2000/svg"
   xmlns="http://www.w3.org/2000/svg"
   xmlns:xlink="http://www.w3.org/1999/xlink"
   xmlns:sodipodi="http://sodipodi.sourceforge.net/DTD/sodipodi-0.dtd"
   xmlns:inkscape="http://www.inkscape.org/namespaces/inkscape"
   width="281.12009"
   height="177.0731"
   id="svg2"
   version="1.1"
   inkscape:version="0.47pre4 r22446"
   sodipodi:docname="sofa_tandem.svg">
  <defs
     id="defs4">
    <linearGradient
       inkscape:collect="always"
       id="linearGradient3914">
      <stop
         style="stop-color:#f2780b;stop-opacity:1;"
         offset="0"
         id="stop3916" />
      <stop
         style="stop-color:#f2780b;stop-opacity:0;"
         offset="1"
         id="stop3918" />
    </linearGradient>
    <linearGradient
       inkscape:collect="always"
       id="linearGradient3904">
      <stop
         style="stop-color:#2e3436;stop-opacity:1;"
         offset="0"
         id="stop3906" />
      <stop
         style="stop-color:#2e3436;stop-opacity:0;"
         offset="1"
         id="stop3908" />
    </linearGradient>
    <linearGradient
       inkscape:collect="always"
       id="linearGradient3860">
      <stop
         style="stop-color:#db8d07;stop-opacity:1"
         offset="0"
         id="stop3862" />
      <stop
         style="stop-color:#f8af08;stop-opacity:1"
         offset="1"
         id="stop3864" />
    </linearGradient>
    <linearGradient
       inkscape:collect="always"
       id="linearGradient3768">
      <stop
         style="stop-color:#000000;stop-opacity:1;"
         offset="0"
         id="stop3770" />
      <stop
         style="stop-color:#000000;stop-opacity:0;"
         offset="1"
         id="stop3772" />
    </linearGradient>
    <linearGradient
       inkscape:collect="always"
       id="linearGradient4258">
      <stop
         style="stop-color:#f6d473;stop-opacity:1;"
         offset="0"
         id="stop4260" />
      <stop
         style="stop-color:#f6d473;stop-opacity:0;"
         offset="1"
         id="stop4262" />
    </linearGradient>
    <inkscape:perspective
       sodipodi:type="inkscape:persp3d"
       inkscape:vp_x="0 : 526.18109 : 1"
       inkscape:vp_y="0 : 1000 : 0"
       inkscape:vp_z="744.09448 : 526.18109 : 1"
       inkscape:persp3d-origin="372.04724 : 350.78739 : 1"
       id="perspective10" />
    <inkscape:perspective
       id="perspective3179"
       inkscape:persp3d-origin="0.5 : 0.33333333 : 1"
       inkscape:vp_z="1 : 0.5 : 1"
       inkscape:vp_y="0 : 1000 : 0"
       inkscape:vp_x="0 : 0.5 : 1"
       sodipodi:type="inkscape:persp3d" />
    <filter
       inkscape:collect="always"
       id="filter4205"
       x="-0.15681818"
       width="1.3136364"
       y="-0.097183101"
       height="1.1943662"
       color-interpolation-filters="sRGB">
      <feGaussianBlur
         inkscape:collect="always"
         stdDeviation="0.359375"
         id="feGaussianBlur4207" />
    </filter>
    <radialGradient
       inkscape:collect="always"
       xlink:href="#linearGradient4258"
       id="radialGradient4264"
       cx="152.02795"
       cy="44.01091"
       fx="152.02795"
       fy="44.01091"
       r="10.960155"
       gradientTransform="matrix(1,0,0,1.1774194,0,-7.8083884)"
       gradientUnits="userSpaceOnUse" />
    <radialGradient
       inkscape:collect="always"
       xlink:href="#linearGradient4258"
       id="radialGradient4276"
       gradientUnits="userSpaceOnUse"
       gradientTransform="matrix(1,0,0,1.1774194,0,-7.8083884)"
       cx="152.02795"
       cy="44.01091"
       fx="152.02795"
       fy="44.01091"
       r="10.960155" />
    <radialGradient
       inkscape:collect="always"
       xlink:href="#linearGradient4258"
       id="radialGradient4284"
       gradientUnits="userSpaceOnUse"
       gradientTransform="matrix(1,0,0,1.1774194,0,-7.8083884)"
       cx="152.02795"
       cy="44.01091"
       fx="152.02795"
       fy="44.01091"
       r="10.960155" />
    <radialGradient
       inkscape:collect="always"
       xlink:href="#linearGradient4258"
       id="radialGradient4286"
       gradientUnits="userSpaceOnUse"
       gradientTransform="matrix(1,0,0,1.1774194,0,-7.8083884)"
       cx="152.02795"
       cy="44.01091"
       fx="152.02795"
       fy="44.01091"
       r="10.960155" />
    <radialGradient
       inkscape:collect="always"
       xlink:href="#linearGradient4258"
       id="radialGradient4300"
       gradientUnits="userSpaceOnUse"
       gradientTransform="matrix(1,0,0,1.1774194,0,-7.8083884)"
       cx="152.02795"
       cy="44.01091"
       fx="152.02795"
       fy="44.01091"
       r="10.960155" />
    <radialGradient
       inkscape:collect="always"
       xlink:href="#linearGradient4258"
       id="radialGradient4302"
       gradientUnits="userSpaceOnUse"
       gradientTransform="matrix(1,0,0,1.1774194,0,-7.8083884)"
       cx="152.02795"
       cy="44.01091"
       fx="152.02795"
       fy="44.01091"
       r="10.960155" />
    <inkscape:perspective
       id="perspective2937"
       inkscape:persp3d-origin="0.5 : 0.33333333 : 1"
       inkscape:vp_z="1 : 0.5 : 1"
       inkscape:vp_y="0 : 1000 : 0"
       inkscape:vp_x="0 : 0.5 : 1"
       sodipodi:type="inkscape:persp3d" />
    <radialGradient
       inkscape:collect="always"
       xlink:href="#linearGradient3768"
       id="radialGradient3774"
       cx="259.9371"
       cy="30.475594"
       fx="259.9371"
       fy="30.475594"
       r="14.238976"
       gradientTransform="matrix(-2.6965759e-7,1.5450549,-3.5935963,-6.1366615e-7,369.45415,-385.59531)"
       gradientUnits="userSpaceOnUse" />
    <radialGradient
       inkscape:collect="always"
       xlink:href="#linearGradient3768"
       id="radialGradient3782"
       cx="41.184753"
       cy="-0.66493267"
       fx="41.184753"
       fy="-0.66493267"
       r="18.256237"
       gradientTransform="matrix(1.0000001,1.6415714,-1.8934032,1.1534092,-1.2589906,-73.724614)"
       gradientUnits="userSpaceOnUse" />
    <linearGradient
       inkscape:collect="always"
       xlink:href="#linearGradient3768"
       id="linearGradient3802"
       x1="242.18643"
       y1="-46.89183"
       x2="251.44838"
       y2="-28.391832"
       gradientUnits="userSpaceOnUse"
       spreadMethod="pad" />
    <linearGradient
       inkscape:collect="always"
       xlink:href="#linearGradient3860"
       id="linearGradient3882"
       x1="45.084522"
       y1="52.249676"
       x2="223.03281"
       y2="52.249676"
       gradientUnits="userSpaceOnUse" />
    <linearGradient
       inkscape:collect="always"
       xlink:href="#linearGradient3860"
       id="linearGradient3890"
       x1="43.709583"
       y1="14.626061"
       x2="162.55003"
       y2="14.626061"
       gradientUnits="userSpaceOnUse" />
    <linearGradient
       inkscape:collect="always"
       xlink:href="#linearGradient3860"
       id="linearGradient3898"
       x1="79.064919"
       y1="30.71274"
       x2="180.20445"
       y2="30.71274"
       gradientUnits="userSpaceOnUse" />
    <linearGradient
       inkscape:collect="always"
       xlink:href="#linearGradient3904"
       id="linearGradient3910"
       x1="37"
       y1="65.906647"
       x2="37"
       y2="75.656647"
       gradientUnits="userSpaceOnUse"
       gradientTransform="translate(15.636039,-64.301624)" />
    <linearGradient
       inkscape:collect="always"
       xlink:href="#linearGradient3914"
       id="linearGradient3920"
       x1="268.38605"
       y1="17.105022"
       x2="293.52451"
       y2="56.605022"
       gradientUnits="userSpaceOnUse" />
    <linearGradient
       inkscape:collect="always"
       xlink:href="#linearGradient3914"
       id="linearGradient3928"
       x1="237.49507"
       y1="13.007349"
       x2="237.49507"
       y2="57.992638"
       gradientUnits="userSpaceOnUse" />
    <linearGradient
       inkscape:collect="always"
       xlink:href="#linearGradient3914"
       id="linearGradient3936"
       x1="56.244305"
       y1="-29.582874"
       x2="80.29229"
       y2="18.495251"
       gradientUnits="userSpaceOnUse" />
    <filter
       inkscape:collect="always"
       id="filter4088"
       x="-0.034357054"
       width="1.0687141"
       y="-0.11913419"
       height="1.2382684">
      <feGaussianBlur
         inkscape:collect="always"
         stdDeviation="3.8222223"
         id="feGaussianBlur4090" />
    </filter>
  </defs>
  <sodipodi:namedview
     id="base"
     pagecolor="#ffffff"
     bordercolor="#666666"
     borderopacity="1.0"
     inkscape:pageopacity="0.0"
     inkscape:pageshadow="2"
     inkscape:zoom="1"
     inkscape:cx="195.90654"
     inkscape:cy="81.666982"
     inkscape:document-units="px"
     inkscape:current-layer="layer1"
     showgrid="false"
     inkscape:window-width="1280"
     inkscape:window-height="950"
     inkscape:window-x="0"
     inkscape:window-y="25"
     inkscape:window-maximized="1" />
  <metadata
     id="metadata7">
    <rdf:RDF>
      <cc:Work
         rdf:about="">
        <dc:format>image/svg+xml</dc:format>
        <dc:type
           rdf:resource="http://purl.org/dc/dcmitype/StillImage" />
        <dc:title></dc:title>
      </cc:Work>
    </rdf:RDF>
  </metadata>
  <g
     inkscape:label="Capa 1"
     inkscape:groupmode="layer"
     id="layer1"
     transform="translate(-14.366039,63.948071)">
    <path
       style="fill:#babdb6;stroke:none;filter:url(#filter4088)"
       d="m 18.886039,59.605026 218.000001,49.000004 49,-29.000004 -207.000001,-48.000003 -60,28.000003 z"
       id="path3822"
       sodipodi:nodetypes="ccccc" />
    <path
       style="fill:#2e3436;stroke:#2e3436;stroke-width:0.99999994;stroke-miterlimit:4;stroke-opacity:1"
       d="m 207.9913,73.877748 10.89474,0 -2.90578,26.477282 -5.8803,-1.750002 -2.10866,-24.72728 z"
       id="rect3813"
       sodipodi:nodetypes="ccccc" />
    <path
       sodipodi:nodetypes="ccccc"
       id="path3820"
       d="m 214.2413,75.627748 8.89474,-0.25 -2.15578,20.727282 -4.6303,4.25 -2.10866,-24.727282 z"
       style="fill:#2e3436;stroke:#2e3436;stroke-width:0.99999994;stroke-miterlimit:4;stroke-opacity:1" />
    <path
       sodipodi:nodetypes="ccccc"
       id="path3816"
       d="m 50.7413,40.627748 9.14474,0 -2.43903,22.434719 -4.93576,-1.482811 -1.76995,-20.951908 z"
       style="fill:#2e3436;stroke:#2e3436;stroke-width:0.99999994;stroke-miterlimit:4;stroke-opacity:1" />
    <path
       style="fill:#2e3436;stroke:#2e3436;stroke-width:0.99999994;stroke-miterlimit:4;stroke-opacity:1"
       d="m 56.2413,42.127748 9.14474,0 -3.93903,18.684719 -3.43576,2.267189 -1.76995,-20.951908 z"
       id="path3818"
       sodipodi:nodetypes="ccccc" />
    <path
       style="fill:#f8af08;fill-opacity:1;stroke:#000000;stroke-width:0.97585189px;stroke-linecap:butt;stroke-linejoin:miter;stroke-opacity:1"
       d="M 49.285208,42.531299 20.361626,33.786975 c 0,0 -2.354245,-49.77537 3.363207,-53.811211 8.071697,-5.044801 73.990559,-14.798084 73.990559,-14.798084 L 97.042751,-5.2261534 49.285208,42.531299 z"
       id="path2978"
       sodipodi:nodetypes="cccccc" />
    <path
       id="path3784"
       d="m 94.29229,-29.582874 c -7.82628,2.48535 -45.75069,9.59444 -50.3125,14.15625 -2.3762,3.5643 -2.73434,41.54406 -1.65625,57.375 0.96697,0.12814 4.625,0.625 4.625,0.625 l 44.21875,-23 c 0,0 2.52008,-33.06321 3.125,-49.15625 z"
       style="fill:url(#linearGradient3936);fill-opacity:1;stroke:none"
       sodipodi:nodetypes="cccccc" />
    <path
       style="fill:#f8af08;fill-opacity:1;stroke:#000000;stroke-width:1px;stroke-linecap:butt;stroke-linejoin:miter;stroke-opacity:1"
       d="m 163.46425,3.3735206 2.82843,-52.3259016 4.94975,-9.192388 -2.82843,-1.414214 c -14.14214,-1.06066 -57.36709,-2.553108 -64.34672,-3.889088 -12.831814,7.938784 -12.060379,38.73815 -13.435029,60.4576306 l 72.831999,6.363961 z"
       id="path2976"
       sodipodi:nodetypes="ccccccc" />
    <path
       id="path4209"
       d="m 346.375,133.86218 c 0,0 -5,0.75 -5.5,8.875"
       style="opacity:0.20676694;fill:none;stroke:#f2c766;stroke-width:1px;stroke-linecap:butt;stroke-linejoin:miter;stroke-opacity:1;filter:url(#filter4205)"
       transform="matrix(2.5171662,0,0,2.5171663,-612.36083,-390.99066)" />
    <path
       style="fill:url(#linearGradient3882);fill-opacity:1;stroke:#000000;stroke-width:1px;stroke-linecap:butt;stroke-linejoin:miter;stroke-opacity:1"
       d="m 222.5328,78.498416 -176.948277,-35.69849 1.914214,-16.79899 173.948273,30.40559 1.08579,22.09189 z"
       id="path2968"
       sodipodi:nodetypes="ccccc" />
    <path
       style="opacity:0.62781953;fill:#f2780b;fill-opacity:1;stroke:none"
       d="m 168.97466,-57.291207 c 0,0 -13.61181,32.703688 -10.07627,58.3363091 2.90775,2.8288964 5.48007,1e-7 5.48007,1e-7 l 2.5663,-32.5722072 0.0138,-0.175704 0.15553,-1.974054 1.86053,-23.614344 z"
       id="path3912"
       sodipodi:nodetypes="ccccccc" />
    <path
       style="fill:#f8af08;fill-opacity:1;stroke:#000000;stroke-width:1px;stroke-linecap:butt;stroke-linejoin:miter;stroke-opacity:1"
       d="m 261.7521,-9.3544014 c 0.36373,-13.5564556 6.88721,-35.1288786 -3.88909,-45.2548336 0,0 -41.36575,-1e-6 -48.43682,0.707106 0,0 -21.56676,-7.778175 -30.40559,-6.363961 -19.79899,-6.010408 -16.26345,67.8822506 -16.26345,67.8822506 l 95.45941,9.1923884 7.07107,-26.1629504"
       id="path2970"
       sodipodi:nodetypes="ccccccc" />
    <path
       sodipodi:nodetypes="ccccccc"
       id="path2980"
       d="m 82.854081,-9.7079546 c 0,0 -32.88046,7.4246209 -38.18376,10.60660192 -1.76777,1.76776698 2.12131,25.45583968 2.12131,25.45583968 L 120.6843,39.082414 162.05004,10.798137 158.5145,0.19154032 c 0,0 -59.750519,-11.31370932 -75.660419,-9.89949492 z"
       style="fill:url(#linearGradient3890);fill-opacity:1;stroke:#000000;stroke-width:1px;stroke-linecap:butt;stroke-linejoin:miter;stroke-opacity:1" />
    <path
       style="fill:url(#linearGradient3898);fill-opacity:1;stroke:#000000;stroke-width:1px;stroke-linecap:butt;stroke-linejoin:miter;stroke-opacity:1"
       d="m 159.92872,2.6664136 c 0,0 -32.88046,7.4246214 -38.18376,10.6066024 -1.76777,1.767767 2.12131,25.45584 2.12131,25.45584 l 92.98455,20.152548 22.27386,-35.708898 -3.53554,-10.606597 c 0,0 -59.75052,-11.313709 -75.66042,-9.8994954 z"
       id="path2972"
       sodipodi:nodetypes="ccccccc" />
    <path
       style="fill:#f8af08;fill-opacity:1;stroke:#000000;stroke-width:1px;stroke-linecap:butt;stroke-linejoin:miter;stroke-opacity:1"
       d="m 261.04499,-10.768615 c 0,0 -30.40559,9.1923871 -36.06244,14.8492371 -2.82843,4.24264 -7.07107,72.1248999 -3.53554,72.8319999 3.53554,0.70711 41.0122,5.65686 41.0122,5.65686 0,0 28.69848,-19.2561 29.69848,-20.5061 1,-2 2.82843,-62.93249989 2.82843,-67.1751399 -7.07107,-4.24264 -33.94113,-5.6568571 -33.94113,-5.6568571 z"
       id="path2964"
       sodipodi:nodetypes="ccscccc" />
    <path
       sodipodi:nodetypes="ccc"
       id="path2982"
       d="m 77.197229,-23.850091 c 0,0 -30.405588,4.949748 -33.941128,10.253049 -3.53553,2.474874 3e-6,52.679451 3e-6,52.679451"
       style="fill:none;stroke:url(#radialGradient3782);stroke-width:1px;stroke-linecap:butt;stroke-linejoin:miter;stroke-opacity:1" />
    <path
       style="fill:none;stroke:#000000;stroke-width:1px;stroke-linecap:butt;stroke-linejoin:miter;stroke-opacity:1"
       d="m 221.09346,29.713248 c 0,0 -0.35355,0.176777 -3.88909,2.298097 -3.53553,2.474874 -0.35355,26.516501 -0.35355,26.516501"
       id="path2984"
       sodipodi:nodetypes="ccc" />
    <path
       sodipodi:nodetypes="ccc"
       id="path2986"
       d="m 129.69991,10.444588 c 0,0 -6.36396,0.883884 -10.07628,2.298097 -3.53553,2.474874 0.88389,25.986171 0.88389,25.986171"
       style="fill:none;stroke:#000000;stroke-width:1px;stroke-linecap:butt;stroke-linejoin:miter;stroke-opacity:1" />
    <path
       style="fill:none;stroke:url(#linearGradient3802);stroke-width:0.99999994px;stroke-linecap:butt;stroke-linejoin:miter;stroke-opacity:1"
       d="m 260.21032,-52.012519 c -7.64528,1.277699 -23.85164,-8.283073 -14.89961,47.241375"
       id="path2988"
       sodipodi:nodetypes="cc" />
    <path
       style="fill:url(#linearGradient3920);fill-opacity:1;stroke:none"
       d="m 293.52452,-2.7470876 c -7.82628,2.48535 -25.98292,10.5086536 -30.54473,15.0704636 -2.3762,3.5643 -5.73434,52.04406 -4.65625,67.875 0.96697,0.12814 4.625,0.625 4.625,0.625 0,0 28.01164,-18.335786 29.01164,-19.085786 1.5,-2 0.95942,-48.391638 1.56434,-64.4846776 z"
       id="path2990"
       sodipodi:nodetypes="cccccc" />
    <path
       style="fill:none;stroke:url(#radialGradient3774);stroke-width:1px;stroke-linecap:butt;stroke-linejoin:miter;stroke-opacity:1"
       d="m 287.91505,-2.9904407 c 0,0 -22.27386,9.5459419 -25.8094,14.8492427 -3.53553,2.474874 -0.35355,67.17514 -0.35355,67.17514"
       id="path2966"
       sodipodi:nodetypes="ccc" />
    <path
       style="fill:#f2780b;fill-opacity:1;stroke:none"
       d="m 105.08386,101.84996 c -0.53422,-1.56956 -1.68655,-11.554523 -1.84772,-16.010613 -0.20687,-5.719138 0.14115,-8.107068 1.22229,-8.386885 0.56266,-0.145626 0.6195,0.27183 0.65632,4.820833 0.0337,4.164942 0.93577,13.254539 1.76027,17.737405 0.16577,0.9013 0.0415,1.19401 -0.71805,1.6917 -0.70679,0.46311 -0.95413,0.49712 -1.07311,0.14756 l 0,0 z"
       id="path3786"
       transform="translate(15.886039,-64.301624)" />
    <path
       style="fill:#f2780b;fill-opacity:1;stroke:none"
       d="m 201.3095,119.91541 c -0.97126,-5.68153 -1.17564,-19.78974 -0.31754,-21.920244 0.20505,-0.509111 1.20388,-1.437008 2.21961,-2.061994 l 1.84679,-1.136338 -0.23609,3.476208 c -0.38174,5.620658 -0.91561,15.719568 -0.92291,17.457948 -0.005,1.20753 -0.30261,2.07661 -1.19611,3.49369 l -1.18936,1.88632 -0.20439,-1.19559 z"
       id="path3788"
       transform="translate(15.886039,-64.301624)" />
    <path
       style="fill:url(#linearGradient3928);fill-opacity:1;stroke:none"
       d="m 229.56924,56.182868 c -0.12057,-0.995377 -0.452,-3.559862 -0.73651,-5.69886 -0.8974,-6.746833 -1.28243,-15.609767 -0.88876,-20.457869 0.75947,-9.352741 2.99559,-14.167733 7.50623,-16.163038 1.49768,-0.662505 2.49501,-0.823223 5.1987,-0.837762 l 3.34549,-0.01799 0.97457,1.961563 c 1.90117,3.826588 2.22792,5.843527 2.23107,13.771563 0.003,6.731697 -1.1239,20.690037 -1.87832,23.272709 -0.20744,0.71014 -1.28125,1.173168 -7.88669,3.400763 l -7.64656,2.578691 -0.21922,-1.809769 0,0 z"
       id="path3792"
       transform="translate(15.886039,-64.301624)" />
    <path
       style="opacity:0.3195489;fill:#2e3436;stroke:none"
       d="m 28.25,66.156647 17.5,3.75 40.25,-14.5 -9.5,-18 -1.5,17 -7,-1 c 0,0 -38.75,10.75 -39.75,12.75 z"
       id="path3900"
       transform="translate(15.886039,-64.301624)"
       sodipodi:nodetypes="ccccccc" />
    <path
       style="opacity:0.30075187;fill:url(#linearGradient3910);fill-opacity:1;stroke:none"
       d="m 44.136039,1.605023 2.5,19.5 14.5,-15.5 -17,-4 z"
       id="path3902" />
  </g>
</svg>
